HIERARCHY
ROOT Hips
{
    OFFSET 0.000000 0.000000 0.000000
    CHANNELS 6 Xposition Yposition Zposition Zrotation Xrotation Yrotation
    JOINT Spine
    {
        OFFSET -0.000000 14.517291 0.000000
        CHANNELS 3 Zrotation Xrotation Yrotation
        JOINT Spine1
        {
            OFFSET -0.000000 37.558300 0.000000
            CHANNELS 3 Zrotation Xrotation Yrotation
            JOINT Neck
            {
                OFFSET -0.000000 37.404057 3.400369
                CHANNELS 3 Zrotation Xrotation Yrotation
                JOINT Head
                {
                    OFFSET -0.000000 24.785618 -3.540803
                    CHANNELS 3 Zrotation Xrotation Yrotation
                    End Site
                    {
                        OFFSET -0.000000 35.408028 0.000000
                    }
                }
            }
            JOINT LeftShoulder
            {
                OFFSET 6.992933 33.973492 -0.192664
                CHANNELS 3 Zrotation Xrotation Yrotation
                JOINT LeftArm
                {
                    OFFSET 21.527611 0.000000 0.000000
                    CHANNELS 3 Zrotation Xrotation Yrotation
                    JOINT LeftForeArm
                    {
                        OFFSET 56.353916 0.000000 0.000000
                        CHANNELS 3 Zrotation Xrotation Yrotation
                        JOINT LeftHand
                        {
                            OFFSET 47.774071 0.000000 0.000000
                            CHANNELS 3 Zrotation Xrotation Yrotation
                            End Site
                            {
                                OFFSET 26.556021 0.000000 0.000000
                            }
                        }
                    }
                }
            }
            JOINT RightShoulder
            {
                OFFSET -7.065357 33.973492 -0.192664
                CHANNELS 3 Zrotation Xrotation Yrotation
                JOINT RightArm
                {
                    OFFSET -21.527611 0.000000 0.000000
                    CHANNELS 3 Zrotation Xrotation Yrotation
                    JOINT RightForeArm
                    {
                        OFFSET -56.353916 0.000000 0.000000
                        CHANNELS 3 Zrotation Xrotation Yrotation
                        JOINT RightHand
                        {
                            OFFSET -47.774071 0.000000 0.000000
                            CHANNELS 3 Zrotation Xrotation Yrotation
                            End Site
                            {
                                OFFSET -26.556021 0.000000 0.000000
                            }
                        }
                    }
                }
            }
        }
    }
    JOINT LeftUpLeg
    {
        OFFSET 17.704014 0.000000 0.000000
        CHANNELS 3 Zrotation Xrotation Yrotation
        JOINT LeftLeg
        {
            OFFSET -0.000000 -81.181816 0.000000
            CHANNELS 3 Zrotation Xrotation Yrotation
            JOINT LeftFoot
            {
                OFFSET -0.000000 -62.821102 0.000000
                CHANNELS 3 Zrotation Xrotation Yrotation
                JOINT LeftToeBase
                {
                    OFFSET -0.000000 -11.507608 26.556021
                    CHANNELS 3 Zrotation Xrotation Yrotation
                    End Site
                    {
                        OFFSET -0.000000 0.000000 7.081605
                    }
                }
            }
        }
    }
    JOINT RightUpLeg
    {
        OFFSET -17.704014 0.000000 0.000000
        CHANNELS 3 Zrotation Xrotation Yrotation
        JOINT RightLeg
        {
            OFFSET -0.000000 -81.181816 0.000000
            CHANNELS 3 Zrotation Xrotation Yrotation
            JOINT RightFoot
            {
                OFFSET -0.000000 -62.821102 0.000000
                CHANNELS 3 Zrotation Xrotation Yrotation
                JOINT RightToeBase
                {
                    OFFSET -0.000000 -11.507608 26.556021
                    CHANNELS 3 Zrotation Xrotation Yrotation
                    End Site
                    {
                        OFFSET -0.000000 0.000000 7.081605
                    }
                }
            }
        }
    }
}
MOTION
Frames:    4
Frame Time:    0.008333
-11.445992    150.329941    -100.366638    1.837014    -5.019430    47.134209    -2.638006    -0.455642    1.167033    0.818898    3.694843    0.366008    -3.311613    5.764142    -20.828892    18.355694    0.020127    -18.873663    2.422668    7.768445    -13.322460    -34.624203    23.605881    -50.527325    -1.793323    -29.329292    -119.621147    -8.122163    -31.209484    -12.677451    0.392785    13.936404    -4.609078    29.906105    20.995644    43.625435    2.151091    10.231130    25.559532    -19.585291    5.543586    24.220556    16.496264    -5.858552    -7.363947    -20.683142    45.123962    -19.662476    10.487002    -32.961418    53.425957    0.000000    0.000000    0.000000    -26.063335    -16.451908    -26.754145    10.599222    30.852671    -17.624050    5.990224    5.696111    -7.821843    0.000000    0.000000    0.000000    
-11.459015    150.332016    -100.359154    1.831015    -5.025773    47.143944    -2.620290    -0.452210    1.162878    0.814862    3.681550    0.364827    -3.326414    5.779769    -20.836020    18.364359    0.019263    -18.878880    2.408130    7.776762    -13.326427    -34.642570    23.596197    -50.523602    -1.796653    -29.310162    -119.641899    -8.122690    -31.196022    -12.685547    0.352461    13.904324    -4.600533    29.934053    20.633362    43.604164    1.629673    9.957972    26.249714    -19.731211    5.346032    24.202253    16.513920    -5.864290    -7.369200    -20.691589    45.119625    -19.663244    10.473127    -32.970741    53.428905    0.000000    0.000000    0.000000    -26.067188    -16.455994    -26.762642    10.617271    30.879002    -17.615551    6.008393    5.702822    -7.830946    0.000000    0.000000    0.000000    
-11.473867    150.333878    -100.347610    1.829491    -5.027927    47.153172    -2.622654    -0.451274    1.160305    0.822661    3.675334    0.363726    -3.329374    5.776237    -20.841614    18.356634    0.031332    -18.887365    2.398781    7.782608    -13.322923    -34.641136    23.617937    -50.534706    -1.793307    -29.330868    -119.666710    -8.129336    -31.212976    -12.670435    0.310977    13.848825    -4.576840    29.968466    20.272160    43.541676    1.390810    9.311432    26.940762    -20.759443    4.677877    23.335398    16.523523    -5.867738    -7.372518    -20.685757    45.116119    -19.678080    10.474710    -32.962013    53.439705    0.000000    0.000000    0.000000    -26.073315    -16.464064    -26.764235    10.634010    30.907913    -17.608467    6.022216    5.707274    -7.861251    0.000000    0.000000    0.000000    
-11.485053    150.336365    -100.340103    1.826708    -5.028004    47.168491    -2.605967    -0.455554    1.156555    0.798653    3.676078    0.363342    -3.319048    5.779809    -20.845955    18.357649    0.024312    -18.891825    2.413354    7.790104    -13.323871    -34.659225    23.617323    -50.545498    -1.781255    -29.330183    -119.680191    -8.164564    -31.190392    -12.694471    0.293199    13.802073    -4.570889    29.972803    19.986673    43.503525    0.794327    8.982094    27.648420    -21.010405    4.442252    23.267359    16.532249    -5.875726    -7.378222    -20.683855    45.113560    -19.664974    10.454730    -32.958473    53.406960    0.000000    0.000000    0.000000    -26.082363    -16.467894    -26.781498    10.646765    30.931110    -17.629961    6.031530    5.713996    -7.856581    0.000000    0.000000    0.000000    
